<mxfile host="app.diagrams.net" modified="2024-03-06T18:45:06.030Z" agent="Mozilla/5.0 (Windows NT 10.0; Win64; x64) AppleWebKit/537.36 (KHTML, like Gecko) Chrome/122.0.0.0 Safari/537.36" etag="JnXEZEAxVSxaD0kfLZjJ" version="24.0.1" type="device">
  <diagram name="Page-1" id="8dmWhZTT2yH2JoBBlVc6">
    <mxGraphModel dx="2074" dy="1106" grid="0" gridSize="10" guides="1" tooltips="1" connect="1" arrows="1" fold="1" page="0" pageScale="1" pageWidth="850" pageHeight="1100" math="0" shadow="0">
      <root>
        <mxCell id="0" />
        <mxCell id="1" parent="0" />
        <mxCell id="egE8w92DhhABxDhOdMGj-1" value="Receiving ID badge with a personal QR identifier&amp;nbsp;" style="rounded=1;whiteSpace=wrap;html=1;fontStyle=1;strokeWidth=2;" vertex="1" parent="1">
          <mxGeometry x="20" y="500" width="120" height="60" as="geometry" />
        </mxCell>
        <mxCell id="egE8w92DhhABxDhOdMGj-2" value="Sanitizing hands and receiving the test tube and funnel" style="rounded=1;whiteSpace=wrap;html=1;fontStyle=1;strokeWidth=2;" vertex="1" parent="1">
          <mxGeometry x="200" y="500" width="120" height="60" as="geometry" />
        </mxCell>
        <mxCell id="egE8w92DhhABxDhOdMGj-3" value="" style="endArrow=classic;html=1;rounded=0;fontStyle=1;strokeWidth=2;" edge="1" parent="1">
          <mxGeometry width="50" height="50" relative="1" as="geometry">
            <mxPoint x="140" y="530" as="sourcePoint" />
            <mxPoint x="200" y="530" as="targetPoint" />
          </mxGeometry>
        </mxCell>
        <mxCell id="egE8w92DhhABxDhOdMGj-4" value="" style="endArrow=classic;html=1;rounded=0;fontStyle=1;strokeWidth=2;" edge="1" parent="1">
          <mxGeometry width="50" height="50" relative="1" as="geometry">
            <mxPoint x="320" y="529.5" as="sourcePoint" />
            <mxPoint x="380" y="529.5" as="targetPoint" />
          </mxGeometry>
        </mxCell>
        <mxCell id="egE8w92DhhABxDhOdMGj-5" value="Depositing saliva in the test tube" style="rounded=1;whiteSpace=wrap;html=1;fontStyle=1;strokeWidth=2;" vertex="1" parent="1">
          <mxGeometry x="380" y="500" width="120" height="60" as="geometry" />
        </mxCell>
        <mxCell id="egE8w92DhhABxDhOdMGj-6" value="" style="endArrow=classic;html=1;rounded=0;fontStyle=1;strokeWidth=2;" edge="1" parent="1">
          <mxGeometry width="50" height="50" relative="1" as="geometry">
            <mxPoint x="500" y="529.5" as="sourcePoint" />
            <mxPoint x="560" y="530" as="targetPoint" />
          </mxGeometry>
        </mxCell>
        <mxCell id="egE8w92DhhABxDhOdMGj-7" value="Tapping the sides of the tube to settle the bubbles" style="rounded=1;whiteSpace=wrap;html=1;fontStyle=1;strokeWidth=2;" vertex="1" parent="1">
          <mxGeometry x="560" y="500" width="120" height="60" as="geometry" />
        </mxCell>
        <mxCell id="egE8w92DhhABxDhOdMGj-9" value="" style="endArrow=classic;html=1;rounded=0;fontStyle=1;strokeWidth=2;" edge="1" parent="1">
          <mxGeometry width="50" height="50" relative="1" as="geometry">
            <mxPoint x="680" y="529.5" as="sourcePoint" />
            <mxPoint x="740" y="529.5" as="targetPoint" />
          </mxGeometry>
        </mxCell>
        <mxCell id="egE8w92DhhABxDhOdMGj-11" value="Saliva reaches the filling line?" style="rhombus;whiteSpace=wrap;html=1;fontStyle=1;strokeWidth=2;" vertex="1" parent="1">
          <mxGeometry x="740" y="480" width="100" height="100" as="geometry" />
        </mxCell>
        <mxCell id="egE8w92DhhABxDhOdMGj-14" value="" style="endArrow=none;html=1;rounded=0;fontStyle=1;strokeWidth=2;" edge="1" parent="1">
          <mxGeometry width="50" height="50" relative="1" as="geometry">
            <mxPoint x="789.5" y="480" as="sourcePoint" />
            <mxPoint x="790" y="420" as="targetPoint" />
          </mxGeometry>
        </mxCell>
        <mxCell id="egE8w92DhhABxDhOdMGj-15" value="" style="endArrow=none;html=1;rounded=0;fontStyle=1;strokeWidth=2;" edge="1" parent="1">
          <mxGeometry width="50" height="50" relative="1" as="geometry">
            <mxPoint x="440" y="420" as="sourcePoint" />
            <mxPoint x="790" y="420" as="targetPoint" />
          </mxGeometry>
        </mxCell>
        <mxCell id="egE8w92DhhABxDhOdMGj-16" value="" style="endArrow=classic;html=1;rounded=0;entryX=0.5;entryY=0;entryDx=0;entryDy=0;fontStyle=1;strokeWidth=2;" edge="1" parent="1" target="egE8w92DhhABxDhOdMGj-5">
          <mxGeometry width="50" height="50" relative="1" as="geometry">
            <mxPoint x="439.5" y="420" as="sourcePoint" />
            <mxPoint x="439.5" y="470" as="targetPoint" />
          </mxGeometry>
        </mxCell>
        <mxCell id="egE8w92DhhABxDhOdMGj-17" value="No" style="text;html=1;align=center;verticalAlign=middle;whiteSpace=wrap;rounded=0;fontStyle=1;strokeWidth=2;" vertex="1" parent="1">
          <mxGeometry x="580" y="390" width="60" height="30" as="geometry" />
        </mxCell>
        <mxCell id="egE8w92DhhABxDhOdMGj-19" value="" style="endArrow=classic;html=1;rounded=0;fontStyle=1;strokeWidth=2;" edge="1" parent="1">
          <mxGeometry width="50" height="50" relative="1" as="geometry">
            <mxPoint x="840" y="529.5" as="sourcePoint" />
            <mxPoint x="900" y="529.5" as="targetPoint" />
          </mxGeometry>
        </mxCell>
        <mxCell id="egE8w92DhhABxDhOdMGj-20" value="Yes" style="text;html=1;align=center;verticalAlign=middle;whiteSpace=wrap;rounded=0;fontStyle=1;strokeWidth=2;" vertex="1" parent="1">
          <mxGeometry x="840" y="500" width="60" height="30" as="geometry" />
        </mxCell>
        <mxCell id="egE8w92DhhABxDhOdMGj-22" value="Remove the funnel and discard it" style="rounded=1;whiteSpace=wrap;html=1;fontStyle=1;strokeWidth=2;" vertex="1" parent="1">
          <mxGeometry x="900" y="500" width="120" height="60" as="geometry" />
        </mxCell>
        <mxCell id="egE8w92DhhABxDhOdMGj-23" value="" style="endArrow=classic;html=1;rounded=0;fontStyle=1;strokeWidth=2;" edge="1" parent="1">
          <mxGeometry width="50" height="50" relative="1" as="geometry">
            <mxPoint x="1020" y="530" as="sourcePoint" />
            <mxPoint x="1080" y="530.5" as="targetPoint" />
          </mxGeometry>
        </mxCell>
        <mxCell id="egE8w92DhhABxDhOdMGj-24" value="Placing cap on the testing tube" style="rounded=1;whiteSpace=wrap;html=1;fontStyle=1;strokeWidth=2;" vertex="1" parent="1">
          <mxGeometry x="1080" y="500" width="120" height="60" as="geometry" />
        </mxCell>
        <mxCell id="egE8w92DhhABxDhOdMGj-25" value="" style="endArrow=classic;html=1;rounded=0;fontStyle=1;strokeWidth=2;" edge="1" parent="1">
          <mxGeometry width="50" height="50" relative="1" as="geometry">
            <mxPoint x="1200" y="529" as="sourcePoint" />
            <mxPoint x="1260" y="529.5" as="targetPoint" />
          </mxGeometry>
        </mxCell>
        <mxCell id="egE8w92DhhABxDhOdMGj-26" value="Scanning the QR code at the checkout station" style="rounded=1;whiteSpace=wrap;html=1;fontStyle=1;strokeWidth=2;" vertex="1" parent="1">
          <mxGeometry x="1260" y="500" width="120" height="60" as="geometry" />
        </mxCell>
        <mxCell id="egE8w92DhhABxDhOdMGj-27" value="" style="endArrow=classic;html=1;rounded=0;fontStyle=1;strokeWidth=2;" edge="1" parent="1">
          <mxGeometry width="50" height="50" relative="1" as="geometry">
            <mxPoint x="1380" y="529" as="sourcePoint" />
            <mxPoint x="1440" y="529.5" as="targetPoint" />
          </mxGeometry>
        </mxCell>
        <mxCell id="egE8w92DhhABxDhOdMGj-28" value="Scanning the label on the test tube at the checkout station" style="rounded=1;whiteSpace=wrap;html=1;fontStyle=1;strokeWidth=2;" vertex="1" parent="1">
          <mxGeometry x="1440" y="500" width="120" height="60" as="geometry" />
        </mxCell>
        <mxCell id="egE8w92DhhABxDhOdMGj-29" value="" style="endArrow=classic;html=1;rounded=0;fontStyle=1;strokeWidth=2;" edge="1" parent="1">
          <mxGeometry width="50" height="50" relative="1" as="geometry">
            <mxPoint x="1560" y="530" as="sourcePoint" />
            <mxPoint x="1620" y="530.5" as="targetPoint" />
          </mxGeometry>
        </mxCell>
        <mxCell id="egE8w92DhhABxDhOdMGj-31" value="Placing the test tube in the collection rack" style="rounded=1;whiteSpace=wrap;html=1;fontStyle=1;strokeWidth=2;" vertex="1" parent="1">
          <mxGeometry x="1620" y="500" width="120" height="60" as="geometry" />
        </mxCell>
        <mxCell id="egE8w92DhhABxDhOdMGj-32" value="" style="endArrow=classic;html=1;rounded=0;fontStyle=1;strokeWidth=2;" edge="1" parent="1">
          <mxGeometry width="50" height="50" relative="1" as="geometry">
            <mxPoint x="1740" y="529.5" as="sourcePoint" />
            <mxPoint x="1800" y="530" as="targetPoint" />
          </mxGeometry>
        </mxCell>
        <mxCell id="egE8w92DhhABxDhOdMGj-33" value="Sanitizing hands and leave the collection area" style="rounded=1;whiteSpace=wrap;html=1;fontStyle=1;strokeWidth=2;" vertex="1" parent="1">
          <mxGeometry x="1800" y="500" width="120" height="60" as="geometry" />
        </mxCell>
        <mxCell id="egE8w92DhhABxDhOdMGj-35" value="&lt;b&gt;&lt;font style=&quot;font-size: 17px;&quot;&gt;Test collection in Common Areas&lt;/font&gt;&lt;/b&gt;" style="rounded=1;whiteSpace=wrap;html=1;fillColor=#0050ef;fontColor=#ffffff;strokeColor=#001DBC;" vertex="1" parent="1">
          <mxGeometry x="10" y="320" width="620" height="40" as="geometry" />
        </mxCell>
        <mxCell id="egE8w92DhhABxDhOdMGj-36" value="Receiving the testing tube and funnel from a staff" style="rounded=1;whiteSpace=wrap;html=1;fontStyle=1;strokeWidth=2;" vertex="1" parent="1">
          <mxGeometry x="30" y="900" width="120" height="60" as="geometry" />
        </mxCell>
        <mxCell id="egE8w92DhhABxDhOdMGj-38" value="" style="endArrow=classic;html=1;rounded=0;fontStyle=1;strokeWidth=2;" edge="1" parent="1">
          <mxGeometry width="50" height="50" relative="1" as="geometry">
            <mxPoint x="150" y="930" as="sourcePoint" />
            <mxPoint x="210" y="930" as="targetPoint" />
          </mxGeometry>
        </mxCell>
        <mxCell id="egE8w92DhhABxDhOdMGj-40" value="Depositing saliva in the test tube" style="rounded=1;whiteSpace=wrap;html=1;fontStyle=1;strokeWidth=2;" vertex="1" parent="1">
          <mxGeometry x="210" y="900" width="120" height="60" as="geometry" />
        </mxCell>
        <mxCell id="egE8w92DhhABxDhOdMGj-41" value="" style="endArrow=classic;html=1;rounded=0;fontStyle=1;strokeWidth=2;" edge="1" parent="1">
          <mxGeometry width="50" height="50" relative="1" as="geometry">
            <mxPoint x="330" y="929.5" as="sourcePoint" />
            <mxPoint x="390" y="930" as="targetPoint" />
          </mxGeometry>
        </mxCell>
        <mxCell id="egE8w92DhhABxDhOdMGj-42" value="Tapping the sides of the tube to settle the bubbles" style="rounded=1;whiteSpace=wrap;html=1;fontStyle=1;strokeWidth=2;" vertex="1" parent="1">
          <mxGeometry x="390" y="900" width="120" height="60" as="geometry" />
        </mxCell>
        <mxCell id="egE8w92DhhABxDhOdMGj-43" value="" style="endArrow=classic;html=1;rounded=0;fontStyle=1;strokeWidth=2;" edge="1" parent="1">
          <mxGeometry width="50" height="50" relative="1" as="geometry">
            <mxPoint x="510" y="929.5" as="sourcePoint" />
            <mxPoint x="570" y="929.5" as="targetPoint" />
          </mxGeometry>
        </mxCell>
        <mxCell id="egE8w92DhhABxDhOdMGj-45" value="Saliva reaches the filling line?" style="rhombus;whiteSpace=wrap;html=1;fontStyle=1;strokeWidth=2;" vertex="1" parent="1">
          <mxGeometry x="570" y="880" width="100" height="100" as="geometry" />
        </mxCell>
        <mxCell id="egE8w92DhhABxDhOdMGj-46" value="" style="endArrow=none;html=1;rounded=0;fontStyle=1;strokeWidth=2;" edge="1" parent="1">
          <mxGeometry width="50" height="50" relative="1" as="geometry">
            <mxPoint x="619.5" y="880" as="sourcePoint" />
            <mxPoint x="620" y="820" as="targetPoint" />
          </mxGeometry>
        </mxCell>
        <mxCell id="egE8w92DhhABxDhOdMGj-47" value="" style="endArrow=none;html=1;rounded=0;fontStyle=1;strokeWidth=2;" edge="1" parent="1">
          <mxGeometry width="50" height="50" relative="1" as="geometry">
            <mxPoint x="270" y="820" as="sourcePoint" />
            <mxPoint x="620" y="820" as="targetPoint" />
          </mxGeometry>
        </mxCell>
        <mxCell id="egE8w92DhhABxDhOdMGj-48" value="" style="endArrow=classic;html=1;rounded=0;entryX=0.5;entryY=0;entryDx=0;entryDy=0;fontStyle=1;strokeWidth=2;" edge="1" parent="1" target="egE8w92DhhABxDhOdMGj-40">
          <mxGeometry width="50" height="50" relative="1" as="geometry">
            <mxPoint x="269.5" y="820" as="sourcePoint" />
            <mxPoint x="269.5" y="870" as="targetPoint" />
          </mxGeometry>
        </mxCell>
        <mxCell id="egE8w92DhhABxDhOdMGj-49" value="No" style="text;html=1;align=center;verticalAlign=middle;whiteSpace=wrap;rounded=0;fontStyle=1;strokeWidth=2;" vertex="1" parent="1">
          <mxGeometry x="590" y="790" width="60" height="30" as="geometry" />
        </mxCell>
        <mxCell id="egE8w92DhhABxDhOdMGj-50" value="" style="endArrow=classic;html=1;rounded=0;fontStyle=1;strokeWidth=2;" edge="1" parent="1">
          <mxGeometry width="50" height="50" relative="1" as="geometry">
            <mxPoint x="670" y="929.5" as="sourcePoint" />
            <mxPoint x="730" y="929.5" as="targetPoint" />
          </mxGeometry>
        </mxCell>
        <mxCell id="egE8w92DhhABxDhOdMGj-51" value="Yes" style="text;html=1;align=center;verticalAlign=middle;whiteSpace=wrap;rounded=0;fontStyle=1;strokeWidth=2;" vertex="1" parent="1">
          <mxGeometry x="670" y="900" width="60" height="30" as="geometry" />
        </mxCell>
        <mxCell id="egE8w92DhhABxDhOdMGj-53" value="Remove the funnel and discard it" style="rounded=1;whiteSpace=wrap;html=1;fontStyle=1;strokeWidth=2;" vertex="1" parent="1">
          <mxGeometry x="730" y="900" width="120" height="60" as="geometry" />
        </mxCell>
        <mxCell id="egE8w92DhhABxDhOdMGj-54" value="" style="endArrow=classic;html=1;rounded=0;fontStyle=1;strokeWidth=2;" edge="1" parent="1">
          <mxGeometry width="50" height="50" relative="1" as="geometry">
            <mxPoint x="850" y="930" as="sourcePoint" />
            <mxPoint x="910" y="930.5" as="targetPoint" />
          </mxGeometry>
        </mxCell>
        <mxCell id="egE8w92DhhABxDhOdMGj-55" value="Placing cap on the testing tube" style="rounded=1;whiteSpace=wrap;html=1;fontStyle=1;strokeWidth=2;" vertex="1" parent="1">
          <mxGeometry x="910" y="900" width="120" height="60" as="geometry" />
        </mxCell>
        <mxCell id="egE8w92DhhABxDhOdMGj-56" value="" style="endArrow=classic;html=1;rounded=0;fontStyle=1;strokeWidth=2;" edge="1" parent="1">
          <mxGeometry width="50" height="50" relative="1" as="geometry">
            <mxPoint x="1030" y="929" as="sourcePoint" />
            <mxPoint x="1090" y="929.5" as="targetPoint" />
          </mxGeometry>
        </mxCell>
        <mxCell id="egE8w92DhhABxDhOdMGj-57" value="Scanning the QR code in the binder at the checkout station" style="rounded=1;whiteSpace=wrap;html=1;fontStyle=1;strokeWidth=2;" vertex="1" parent="1">
          <mxGeometry x="1090" y="900" width="120" height="60" as="geometry" />
        </mxCell>
        <mxCell id="egE8w92DhhABxDhOdMGj-58" value="" style="endArrow=classic;html=1;rounded=0;fontStyle=1;strokeWidth=2;" edge="1" parent="1">
          <mxGeometry width="50" height="50" relative="1" as="geometry">
            <mxPoint x="1210" y="929" as="sourcePoint" />
            <mxPoint x="1270" y="929.5" as="targetPoint" />
          </mxGeometry>
        </mxCell>
        <mxCell id="egE8w92DhhABxDhOdMGj-59" value="Scanning the label on the test tube at the checkout station" style="rounded=1;whiteSpace=wrap;html=1;fontStyle=1;strokeWidth=2;" vertex="1" parent="1">
          <mxGeometry x="1270" y="900" width="120" height="60" as="geometry" />
        </mxCell>
        <mxCell id="egE8w92DhhABxDhOdMGj-60" value="" style="endArrow=classic;html=1;rounded=0;fontStyle=1;strokeWidth=2;" edge="1" parent="1">
          <mxGeometry width="50" height="50" relative="1" as="geometry">
            <mxPoint x="1390" y="930" as="sourcePoint" />
            <mxPoint x="1450" y="930.5" as="targetPoint" />
          </mxGeometry>
        </mxCell>
        <mxCell id="egE8w92DhhABxDhOdMGj-61" value="Placing the test tube in the collection rack" style="rounded=1;whiteSpace=wrap;html=1;fontStyle=1;strokeWidth=2;" vertex="1" parent="1">
          <mxGeometry x="1450" y="900" width="120" height="60" as="geometry" />
        </mxCell>
        <mxCell id="egE8w92DhhABxDhOdMGj-62" value="" style="endArrow=classic;html=1;rounded=0;fontStyle=1;strokeWidth=2;" edge="1" parent="1">
          <mxGeometry width="50" height="50" relative="1" as="geometry">
            <mxPoint x="1570" y="929.5" as="sourcePoint" />
            <mxPoint x="1630" y="930" as="targetPoint" />
          </mxGeometry>
        </mxCell>
        <mxCell id="egE8w92DhhABxDhOdMGj-63" value="Sanitizing hands and leave the collection area" style="rounded=1;whiteSpace=wrap;html=1;fontStyle=1;strokeWidth=2;" vertex="1" parent="1">
          <mxGeometry x="1630" y="900" width="120" height="60" as="geometry" />
        </mxCell>
        <mxCell id="egE8w92DhhABxDhOdMGj-64" value="&lt;b&gt;&lt;font style=&quot;font-size: 17px;&quot;&gt;Collection model where school personnel bring testing supplies in each classroom&lt;/font&gt;&lt;/b&gt;" style="rounded=1;whiteSpace=wrap;html=1;fillColor=#0050ef;fontColor=#ffffff;strokeColor=#001DBC;" vertex="1" parent="1">
          <mxGeometry x="20" y="710" width="620" height="50" as="geometry" />
        </mxCell>
      </root>
    </mxGraphModel>
  </diagram>
</mxfile>
